<svg xmlns="http://www.w3.org/2000/svg" fill="none" viewBox="0 126 512 261"><g clip-path="url(#a)"><path fill="#83a7ff" d="M39.672 127.391c-6.96 2.088-13.92 5.568-20.184 9.744l-7.656 8.352c-4.176 5.568-7.656 11.832-9.048 18.792z"/><path fill="#80a8fe" d="m3.48 187.247 57.769-60.552c-2.784-.696-5.568-.696-8.352-.696L2.088 178.895c0 2.784.696 5.568 1.392 8.352"/><path fill="#7da9fd" d="M68.905 129.479 6.96 197.687c.696.696.696 2.088 1.392 2.784 0 0 .696 1.392 2.088 3.48l64.033-70.992c-1.392-1.392-3.48-2.088-5.568-3.48"/><path fill="#7aaafc" d="M87 142.703c-1.391-2.088-3.48-3.48-4.871-4.872L16.704 213l4.176 6.264z"/><path fill="#77abfb" d="M95.353 155.231c-2.088-3.48-3.48-6.264-4.176-6.264l-64.729 79.345 4.176 6.264z"/><path fill="#74acfa" d="m103.705 168.455-4.176-6.264-63.337 81.433 4.176 6.264z"/><path fill="#71adf9" d="m112.753 181.679-4.176-6.264-61.944 84.217 4.176 6.264z"/><path fill="#6eaef8" d="m121.105 195.599-4.176-6.264-60.552 86.305 4.176 6.264z"/><path fill="#6baff7" d="m130.153 209.52-4.176-6.265-59.16 88.393 4.176 6.264z"/><path fill="#68b0f6" d="m139.201 224.136-4.176-6.264-57.768 91.176 4.176 6.265z"/><path fill="#65b1f5" d="m148.249 238.752-4.176-6.264-56.376 93.961 4.176 6.264z"/><path fill="#62b2f4" d="M222.722 139.919c-2.784 2.784-5.568 5.568-7.656 9.048l-56.376 89.089-59.857 105.793c1.392 2.088 2.784 4.872 4.176 6.96z"/><path fill="#5fb3f3" d="M233.858 131.567 110.665 361.249l1.392 2.784c.696 1.392 2.088 2.784 2.784 4.176l128.761-240.122c-3.48.696-6.96 2.088-9.744 3.48"/><path fill="#5cb4f2" d="M258.219 125.999h-1.392c-2.088 0-4.177 0-6.265.696L124.585 377.257c2.088 1.392 4.176 2.784 5.568 3.48z"/><path fill="#59b5f1" d="M263.787 126.695 141.289 384.913c2.088.696 4.872.696 6.96 1.392l122.498-258.218c-2.784-.696-4.872-1.392-6.96-1.392"/><path fill="#56b6f0" d="M281.187 132.959c-2.088-1.392-4.176-2.088-6.264-3.48L161.474 386.305l8.352-2.088z"/><path fill="#53b7ef" d="m206.714 345.937 84.217-205.322c-1.392-2.088-3.48-3.48-5.568-4.872l-98.137 238.034c2.784-2.784 5.568-5.568 7.656-9.048z"/><path fill="#50b8ee" d="m254.738 269.376 45.241-116.929-2.088-3.48c-.696-1.392-2.088-2.784-2.784-4.176L235.25 299.304z"/><path fill="#4db9ed" d="m308.331 164.975-4.872-7.656-41.76 116.233c1.392 2.088 2.784 4.872 4.872 7.656z"/><path fill="#4abaec" d="m316.683 178.895-4.872-7.656-39.672 119.713c1.392 2.784 3.48 4.872 4.872 7.656z"/><path fill="#47bbeb" d="m325.731 192.815-4.872-7.656-37.584 123.194c1.392 2.784 3.48 4.872 4.872 7.656z"/><path fill="#44bcea" d="m334.779 207.431-4.872-7.656-34.8 126.674c1.392 2.784 3.48 5.568 4.872 7.656z"/><path fill="#41bde9" d="m344.523 223.44-4.872-8.352-32.712 130.849c2.088 2.784 3.48 5.568 4.872 8.352z"/><path fill="#3ebee8" d="m354.963 239.448-5.568-8.352-29.928 135.025c1.392 2.088 3.48 4.872 5.568 6.96z"/><path fill="#3bbfe7" d="m371.668 228.312-10.44 16.704-26.449 135.025c2.088 1.392 4.176 2.088 6.264 3.48z"/><path fill="#38c0e6" d="m390.46 198.383-9.744 15.313-29.929 172.609c2.088.696 4.872.696 6.961.696z"/><path fill="#35c1e5" d="m407.164 171.935-9.048 14.616-29.928 199.754c2.784-.696 4.872-1.392 7.656-2.088z"/><path fill="#32c2e4" d="m421.78 148.967-8.352 12.528-26.448 217.154c2.784-2.088 5.568-4.176 7.656-6.264l27.84-224.114c-.696 0-.696 0-.696.696"/><path fill="#2fc3e3" d="M435.004 135.047c-2.784 2.088-5.568 4.176-7.656 6.96l-20.88 213.674c2.088-3.48 4.872-7.656 8.352-13.224z"/><path fill="#2cc4e2" d="M446.836 128.783c-2.784.696-4.872 2.088-6.96 3.48L425.26 326.449c2.784-4.176 4.872-8.352 7.656-12.528z"/><path fill="#29c5e1" d="M457.276 125.999c-2.088 0-4.872.696-6.96 1.392l-8.352 171.217c2.784-4.176 4.872-7.656 7.656-11.832z"/><path fill="#26c6e0" d="M468.413 126.695c-2.088 0-4.872-.696-6.96-.696l-3.48 148.249c2.784-4.176 4.872-7.656 6.96-11.136z"/><path fill="#23c7df" d="M479.549 129.479c-2.088-.696-4.872-1.392-6.96-2.088V251.28c2.088-3.48 4.872-7.656 6.96-11.136z"/><path fill="#20c8de" d="M489.989 135.047c-2.088-1.392-4.872-2.784-6.96-4.176l2.088 98.833c2.088-4.176 4.872-7.656 6.96-10.44z"/><path fill="#1dc9dd" d="M501.821 145.487c-2.088-2.784-4.872-5.568-7.656-7.656l3.48 72.385c3.48-6.265 6.264-9.745 6.264-9.745v-.696z"/><path fill="#1acadc" d="M509.477 189.335c4.176-13.224 2.784-25.752-2.784-35.496z"/><path fill="#17cbdb" d="M0 176.807c.696 7.656 2.784 16.008 7.656 23.664l103.009 163.562 6.264 8.352z"/><path fill="#14ccda" d="M1.392 162.887C.696 166.367 0 169.847 0 174.023l132.241 208.802c3.48 1.392 6.96 2.784 10.44 3.48z"/><path fill="#11cdd9" d="M4.872 153.839c-1.392 2.784-2.784 4.872-3.48 7.656l150.337 225.506c2.784 0 5.569 0 7.657-.696z"/><path fill="#0eced8" d="M9.048 146.879q-2.088 2.088-4.176 6.264l162.866 231.074c2.088-.696 4.176-2.088 6.264-2.784z"/><path fill="#0bcfd7" d="M14.616 140.615c-2.088 1.392-3.48 3.48-4.872 4.872l171.218 231.074c2.088-1.392 3.48-2.784 4.872-4.872z"/><path fill="#08d0d6" d="M20.184 135.743c-1.392 1.392-3.48 2.784-4.872 4.176l176.09 226.202c1.392-2.088 2.784-4.176 3.48-6.264z"/><path fill="#05d1d5" d="M27.144 131.567c-2.088.696-4.176 2.088-6.264 3.48l177.482 216.458c.696-2.784 1.392-5.568 2.088-9.048z"/><path fill="#02d2d4" d="m27.84 130.871 172.61 199.754c-.696-6.264-3.48-12.528-6.96-18.792 0 0 0-.696-.696-1.392L34.8 128.087c-2.784.696-4.872 2.088-6.96 2.784"/><path fill="#00d3d3" d="M43.152 125.999c-2.088.696-4.872 1.392-7.656 2.088l135.722 149.641c-6.264-10.44-13.92-22.272-21.577-34.104z"/><path fill="#00d4d2" d="M54.289 125.999h-9.745l91.873 96.049c-6.264-10.44-13.224-20.881-18.792-29.929z"/><path fill="#00d5d1" d="m56.377 126.695 52.896 52.896c-7.656-11.832-13.92-21.576-16.704-26.448l-21.576-21.576c-4.872-2.784-9.744-4.176-14.616-4.872"/><path fill="#00d6d0" d="m77.953 135.743 6.96 6.264c-2.088-2.088-4.176-4.176-6.96-6.264"/></g><defs><clipPath id="a"><path fill="#fff" d="M0 125.999h512v261.003H0z"/></clipPath></defs></svg>